<svg xmlns="http://www.w3.org/2000/svg" viewBox="0 0 64 64">
  <defs>
    <linearGradient id="bg" x1="10" y1="6" x2="55" y2="60" gradientUnits="userSpaceOnUse">
      <stop stop-color="#ff2424"/>
      <stop offset=".48" stop-color="#c40000"/>
      <stop offset="1" stop-color="#650000"/>
    </linearGradient>
    <radialGradient id="shine" cx="18" cy="12" r="48" gradientUnits="userSpaceOnUse">
      <stop stop-color="#fff" stop-opacity=".34"/>
      <stop offset=".42" stop-color="#fff" stop-opacity=".08"/>
      <stop offset="1" stop-color="#fff" stop-opacity="0"/>
    </radialGradient>
  </defs>
  <rect x="4" y="4" width="56" height="56" rx="15" fill="url(#bg)"/>
  <rect x="5" y="5" width="54" height="54" rx="14" fill="url(#shine)"/>
  <g transform="translate(12 12) scale(2.5)">
    <path fill="#fff" d="M9.405 1.05c-.413-1.4-2.397-1.4-2.81 0l-.1.34a1.464 1.464 0 0 1-2.105.872l-.31-.17c-1.283-.698-2.686.705-1.987 1.987l.169.311c.446.82.023 1.841-.872 2.105l-.34.1c-1.4.413-1.4 2.397 0 2.81l.34.1c.895.264 1.318 1.285.872 2.105l-.17.31c-.698 1.283.705 2.686 1.987 1.987l.311-.169a1.464 1.464 0 0 1 2.105.872l.1.34c.413 1.4 2.397 1.4 2.81 0l.1-.34a1.464 1.464 0 0 1 2.105-.872l.31.17c1.283.698 2.686-.705 1.987-1.987l-.169-.311a1.464 1.464 0 0 1 .872-2.105l.34-.1c1.4-.413 1.4-2.397 0-2.81l-.34-.1a1.464 1.464 0 0 1-.872-2.105l.17-.31c.698-1.283-.705-2.686-1.987-1.987l-.311.169a1.464 1.464 0 0 1-2.105-.872l-.1-.34ZM8 10.93a2.93 2.93 0 1 1 0-5.86 2.93 2.93 0 0 1 0 5.86Z"/>
  </g>
</svg>
